Coordinates
version=1
nRows=23
nColumns=28
inDegrees=yes

Units are S.I. units (second, meters, Newtons, ...)
Angles are in degrees.

endheader
time	pelvis_tilt	pelvis_list	pelvis_rotation	pelvis_tx	pelvis_ty	pelvis_tz	hip_flexion_r	hip_adduction_r	hip_rotation_r	knee_angle_r	ankle_angle_r	subtalar_angle_r	mtp_angle_r	hip_flexion_l	hip_adduction_l	hip_rotation_l	knee_angle_l	socket_flexion	socket_adduction	socket_rotation	socket_tx	socket_ty	socket_tz	foot_flex	lumbar_extension	lumbar_bending	lumbar_rotation
      0.97916667	     10.43628174	      3.53842622	     -5.38076861	      0.39795956	      1.03568706	      0.27042188	     -2.32457816	      0.84665185	      2.10828068	    -21.81316585	      4.88688890	    -12.65705171	     30.21862289	     -2.44055183	      3.53938328	     -2.93745200	    -56.52440700	      0.00000000	      0.00000000	      0.00000000	      0.00000000	      0.01311444	      0.00000000	      5.10441555	    -19.50650872	     -5.06785790	      9.34713442
      0.98333333	     10.46100862	      3.70166178	     -5.60370890	      0.40264880	      1.03650596	      0.27085171	     -2.80736873	      0.60586271	      2.23194074	    -21.42832669	      4.83877420	    -12.45157158	     30.28006182	     -1.90483099	      3.65545292	     -2.81332059	    -56.24720164	      0.00000000	      0.00000000	      0.00000000	      0.00000000	      0.01309861	      0.00000000	      5.10256539	    -19.50364941	     -5.37158953	      9.53599852
      0.98750000	     10.49000944	      3.83065714	     -5.84617735	      0.40732041	      1.03726918	      0.27129480	     -3.25790032	      0.38707865	      2.29030173	    -21.10956562	      4.78198863	    -12.24755528	     30.34594634	     -1.38792397	      3.72941938	     -2.73323828	    -55.93560314	      0.00000000	      0.00000000	      0.00000000	      0.00000000	      0.01304231	      0.00000000	      5.09501510	    -19.50387029	     -5.62197511	      9.73566066
      0.99166667	     10.51192010	      3.94416436	     -6.08621525	      0.41194760	      1.03797576	      0.27167244	     -3.69659119	      0.17981665	      2.35446448	    -20.79356458	      4.72228406	    -12.01480399	     30.42833930	     -0.88629251	      3.80317837	     -2.61759221	    -55.56273934	      0.00000000	      0.00000000	      0.00000000	      0.00000000	      0.01288085	      0.00000000	      5.08190698	    -19.50104542	     -5.85519581	      9.96279716
      0.99583333	     10.53548011	      3.93470779	     -6.32645048	      0.41616686	      1.03854265	      0.27198305	     -3.98449486	      0.09260150	      2.30371477	    -20.76317790	      4.72059612	    -11.97151013	     30.43496746	     -0.36050181	      3.73515501	     -2.52645845	    -55.23095796	      0.00000000	      0.00000000	      0.00000000	      0.00000000	      0.01255164	      0.00000000	      5.10239218	    -19.61134231	     -5.90691839	     10.00225512
      1.00000000	     10.50313902	      4.10844336	     -6.51282901	      0.42112124	      1.03922688	      0.27237278	     -4.50142957	     -0.16028279	      2.43163416	    -20.19765418	      4.65308905	    -11.67029357	     30.52370441	      0.13552809	      3.88149164	     -2.31922722	    -54.70332433	      0.00000000	      0.00000000	      0.00000000	      0.00000000	      0.01242993	      0.00000000	      5.05746529	    -19.46316629	     -6.21214276	     10.26645486
      1.00416667	     10.52969240	      4.08385437	     -6.75088955	      0.42515247	      1.03971974	      0.27269531	     -4.76816443	     -0.22642573	      2.37730916	    -20.19196413	      4.64567108	    -11.62901560	     30.52825209	      0.67511134	      3.79944599	     -2.21196915	    -54.34180614	      0.00000000	      0.00000000	      0.00000000	      0.00000000	      0.01224001	      0.00000000	      5.07651727	    -19.59476242	     -6.25395178	     10.30224132
      1.00833333	     10.45251327	      4.20866002	     -6.90907418	      0.43012288	      1.04024861	      0.27296148	     -5.23930513	     -0.43184118	      2.49773062	    -19.63220102	      4.54168828	    -11.28017765	     30.63226619	      1.13586841	      3.91328205	     -1.92431770	    -53.65919499	      0.00000000	      0.00000000	      0.00000000	      0.00000000	      0.01174962	      0.00000000	      4.99699080	    -19.40511975	     -6.48643093	     10.60645947
      1.01250000	     10.47679587	      4.17352897	     -7.13620470	      0.43401234	      1.04067783	      0.27328673	     -5.49049511	     -0.48671438	      2.43836849	    -19.63276211	      4.53353788	    -11.23831875	     30.63765666	      1.68828389	      3.81520085	     -1.81330777	    -53.26508853	      0.00000000	      0.00000000	      0.00000000	      0.00000000	      0.01168740	      0.00000000	      5.01783552	    -19.55304258	     -6.52166319	     10.64139916
      1.01666667	     10.43268081	      4.13172693	     -7.35765997	      0.43901143	      1.04110378	      0.27347625	     -5.94994106	     -0.57946926	      2.41828219	    -19.15335708	      4.27509919	    -10.22230179	     31.24658937	      1.98505440	      3.77041083	     -1.55674523	    -52.40633629	      0.00000000	      0.00000000	      0.00000000	      0.00000000	      0.01062980	      0.00000000	      4.90798569	    -19.39713596	     -6.60794932	     11.46385149
      1.02083333	     10.44646363	      4.10464671	     -7.56181978	      0.44275887	      1.04144253	      0.27378882	     -6.18190063	     -0.63613067	      2.36840091	    -19.15466126	      4.29203381	    -10.20429359	     31.25055906	      2.54993333	      3.67654612	     -1.42569472	    -51.96301838	      0.00000000	      0.00000000	      0.00000000	      0.00000000	      0.01065913	      0.00000000	      4.93465213	    -19.55918030	     -6.65210070	     11.46620374
      1.02500000	     10.27871282	      4.13562894	     -7.63813046	      0.44769809	      1.04164002	      0.27387335	     -6.53570469	     -0.72650528	      2.41137203	    -18.66968627	      4.29174768	     -9.96369140	     31.37580627	      2.99541634	      3.70317136	     -0.98356670	    -51.05356853	      0.00000000	      0.00000000	      0.00000000	      0.00000000	      0.00969135	      0.00000000	      4.77183334	    -19.28989526	     -6.72048090	     11.58436254
      1.02916667	     10.28789978	      4.09149533	     -7.82091789	      0.45132224	      1.04190723	      0.27415675	     -6.75342030	     -0.76547208	      2.36519059	    -18.67941111	      4.28777660	     -9.93205833	     31.37990109	      3.56772111	      3.58802969	     -0.84052718	    -50.57837156	      0.00000000	      0.00000000	      0.00000000	      0.00000000	      0.00982592	      0.00000000	      4.80649275	    -19.45855439	     -6.75072251	     11.59868382
      1.03333333	     10.09890844	      4.03549985	     -7.88745392	      0.45605645	      1.04194348	      0.27418291	     -7.02224024	     -0.75285994	      2.42815323	    -18.32535737	      4.22978125	     -9.70901590	     31.45725023	      3.98712507	      3.53602407	     -0.30449518	    -49.57797580	      0.00000000	      0.00000000	      0.00000000	      0.00000000	      0.00863664	      0.00000000	      4.70046223	    -19.21739249	     -6.70373211	     11.73568828
      1.03750000	      9.90787935	      3.86903204	     -7.92894165	      0.46048725	      1.04197487	      0.27423202	     -7.28307245	     -0.62978757	      2.34370795	    -17.93677113	      4.07893165	     -9.39607657	     31.60983400	      4.53931042	      3.29578142	      0.02768619	    -48.79448274	      0.00000000	      0.00000000	      0.00000000	      0.00000000	      0.00791464	      0.00000000	      4.54137365	    -19.04404045	     -6.54751053	     11.93807156
      1.04166667	      9.81937298	      3.78963126	     -8.03453252	      0.46440716	      1.04199796	      0.27434670	     -7.47193527	     -0.60412296	      2.37474508	    -17.87083624	      4.03506956	     -9.28180065	     31.67538592	      5.04127029	      3.17892964	      0.40070914	    -48.02915417	      0.00000000	      0.00000000	      0.00000000	      0.00000000	      0.00753718	      0.00000000	      4.54928105	    -19.05742497	     -6.50966265	     12.00600044
      1.04583333	      9.47706788	      3.88666601	     -7.96767739	      0.46771723	      1.04241011	      0.27573481	     -7.49868402	     -0.54066456	      2.53181792	    -17.44930996	      3.69420300	     -9.41033192	     31.80182786	      5.92541601	      3.05111905	      0.64218535	    -47.24974264	      0.00000000	      0.00000000	      0.00000000	      0.00000000	      0.00798539	      0.00000000	      4.30517459	    -18.81394652	     -6.77595435	     12.04746074
      1.05000000	      9.48554051	      3.84183320	     -8.15408090	      0.47142010	      1.04258104	      0.27603426	     -7.72648213	     -0.58247099	      2.50048978	    -17.45170395	      3.70532362	     -9.40742113	     31.81039974	      6.50015884	      2.94153404	      0.79729488	    -46.72228706	      0.00000000	      0.00000000	      0.00000000	      0.00000000	      0.00877572	      0.00000000	      4.35387318	    -18.98744130	     -6.81003288	     12.05856703
      1.05416667	      9.35239249	      3.77718562	     -8.27898722	      0.47605234	      1.04251435	      0.27614648	     -7.98597663	     -0.56992684	      2.61496360	    -17.23133867	      3.71382921	     -9.32920950	     31.85080175	      6.86840849	      2.88444008	      1.32743305	    -45.67703362	      0.00000000	      0.00000000	      0.00000000	      0.00000000	      0.00824235	      0.00000000	      4.32333378	    -18.79969646	     -6.77420705	     12.14902956
      1.05833333	      9.19183521	      3.63415913	     -8.37933913	      0.48071948	      1.04246553	      0.27629013	     -8.29304687	     -0.48116476	      2.63705575	    -16.84884386	      3.67016821	     -9.19396284	     31.90269886	      7.33693800	      2.68343041	      1.68966108	    -44.77520595	      0.00000000	      0.00000000	      0.00000000	      0.00000000	      0.00805974	      0.00000000	      4.17908434	    -18.63361501	     -6.64051920	     12.31183373
      1.06250000	      9.08776193	      3.48993476	     -8.49466415	      0.48495819	      1.04237874	      0.27645162	     -8.55669712	     -0.38964989	      2.70283789	    -16.63943733	      3.59601306	     -9.07365587	     31.94704574	      7.81126282	      2.48865392	      2.06671564	    -43.94118907	      0.00000000	      0.00000000	      0.00000000	      0.00000000	      0.00810250	      0.00000000	      4.16699229	    -18.57833178	     -6.53025058	     12.44998700
      1.06666667	      8.92080661	      3.20715732	     -8.57069200	      0.48933092	      1.04220881	      0.27652839	     -8.86673419	     -0.13096222	      2.81303930	    -16.23717893	      3.39799972	     -8.87999669	     32.05643763	      8.31169786	      2.12832203	      2.43780702	    -43.10618388	      0.00000000	      0.00000000	      0.00000000	      0.00000000	      0.00791540	      0.00000000	      4.09440504	    -18.47083448	     -6.24370704	     12.75050723
      1.07083333	      8.84725079	      3.12220968	     -8.72228002	      0.49352414	      1.04209556	      0.27676046	     -9.09897540	     -0.11413850	      2.84836578	    -16.13967736	      3.39665456	     -8.84824300	     32.08747109	      8.74054664	      1.99262972	      2.76927096	    -42.22599471	      0.00000000	      0.00000000	      0.00000000	      0.00000000	      0.00815784	      0.00000000	      4.10469250	    -18.45846569	     -6.21136098	     12.81303848
